<svg width="36" height="37" viewBox="0 0 36 37" fill="none" xmlns="http://www.w3.org/2000/svg">
<path d="M32.5384 11.8164C32.1832 11.2835 31.2956 10.7506 30.5854 10.7506L7.68271 9.15195L6.79497 6.30991C6.79497 6.13229 6.61744 5.77706 6.26238 5.77706L4.13184 5.06661C3.77679 4.88899 3.2441 5.06661 3.06657 5.59945C2.88904 5.95468 3.06657 6.48763 3.59916 6.66524L5.37454 7.19809L6.26228 10.2177L9.81305 22.474C10.0669 23.4012 10.6049 24.1632 11.3044 24.7139C10.509 25.3676 9.98884 26.3445 9.98884 27.4475C9.98884 29.4014 11.5867 31 13.5396 31C15.4925 31 17.0904 29.4014 17.0904 27.4475C17.0904 26.7992 16.9022 26.197 16.595 25.6713H23.4463C23.1392 26.1971 22.9509 26.7992 22.9509 27.4475C22.9509 29.4014 24.5488 31 26.5017 31C28.4565 31 30.0525 29.4014 30.0525 27.4475C30.0525 26.4901 29.6655 25.6214 29.044 24.9803C29.9139 24.4261 30.5656 23.5664 30.7644 22.474L32.895 14.1255C33.071 13.2374 33.071 12.5268 32.5384 11.8164Z" fill="#313188"/>
</svg>
