<svg width="37" height="37" viewBox="0 0 37 37" fill="none" xmlns="http://www.w3.org/2000/svg">
<path d="M5.78125 16.1876C5.47459 16.1876 5.1805 16.0658 4.96366 15.849C4.74682 15.6321 4.625 15.338 4.625 15.0314V5.78369C4.625 5.47703 4.74682 5.18294 4.96366 4.9661C5.1805 4.74926 5.47459 4.62744 5.78125 4.62744H15.0313C15.3379 4.62744 15.632 4.74926 15.8488 4.9661C16.0657 5.18294 16.1875 5.47703 16.1875 5.78369V15.0314C16.1875 15.338 16.0657 15.6321 15.8488 15.849C15.632 16.0658 15.3379 16.1876 15.0313 16.1876H5.78125ZM21.9688 16.1876C21.6621 16.1876 21.368 16.0658 21.1512 15.849C20.9343 15.6321 20.8125 15.338 20.8125 15.0314V5.78369C20.8125 5.47703 20.9343 5.18294 21.1512 4.9661C21.368 4.74926 21.6621 4.62744 21.9688 4.62744H31.2164C31.5231 4.62744 31.8172 4.74926 32.034 4.9661C32.2509 5.18294 32.3727 5.47703 32.3727 5.78369V15.0314C32.3727 15.338 32.2509 15.6321 32.034 15.849C31.8172 16.0658 31.5231 16.1876 31.2164 16.1876H21.9688ZM5.78125 32.3751C5.47459 32.3751 5.1805 32.2533 4.96366 32.0365C4.74682 31.8196 4.625 31.5255 4.625 31.2189V21.9689C4.625 21.6622 4.74682 21.3681 4.96366 21.1513C5.1805 20.9344 5.47459 20.8126 5.78125 20.8126H15.0313C15.3379 20.8126 15.632 20.9344 15.8488 21.1513C16.0657 21.3681 16.1875 21.6622 16.1875 21.9689V31.2189C16.1875 31.5255 16.0657 31.8196 15.8488 32.0365C15.632 32.2533 15.3379 32.3751 15.0313 32.3751H5.78125ZM21.9688 32.3751C21.6621 32.3751 21.368 32.2533 21.1512 32.0365C20.9343 31.8196 20.8125 31.5255 20.8125 31.2189V21.9689C20.8125 21.6622 20.9343 21.3681 21.1512 21.1513C21.368 20.9344 21.6621 20.8126 21.9688 20.8126H31.2164C31.5231 20.8126 31.8172 20.9344 32.034 21.1513C32.2509 21.3681 32.3727 21.6622 32.3727 21.9689V31.2189C32.3727 31.5255 32.2509 31.8196 32.034 32.0365C31.8172 32.2533 31.5231 32.3751 31.2164 32.3751H21.9688Z" fill="#313188"/>
</svg>
