<svg width="34" height="34" viewBox="0 0 34 34" fill="none" xmlns="http://www.w3.org/2000/svg">
<g clip-path="url(#clip0_122_1075)">
<path d="M19.4976 0H8.25C7.12283 0 6.04183 0.447767 5.2448 1.2448C4.44777 2.04183 4 3.12283 4 4.25V29.75C4 30.8772 4.44777 31.9582 5.2448 32.7552C6.04183 33.5522 7.12283 34 8.25 34H25.25C26.3772 34 27.4582 33.5522 28.2552 32.7552C29.0522 31.9582 29.5 30.8772 29.5 29.75V10.0024C29.4999 9.43884 29.2759 8.89842 28.8774 8.5L21 0.622625C20.6016 0.224083 20.0612 0.000120354 19.4976 0ZM19.9375 7.4375V3.1875L26.3125 9.5625H22.0625C21.4989 9.5625 20.9584 9.33862 20.5599 8.9401C20.1614 8.54159 19.9375 8.00109 19.9375 7.4375Z" fill="#313188"/>
</g>
<path d="M8.59868 19.7H10.6327C11.4727 19.7 12.1447 19.919 12.6487 20.357C13.1527 20.789 13.4047 21.359 13.4047 22.067C13.4047 22.781 13.1527 23.354 12.6487 23.786C12.1447 24.218 11.4727 24.434 10.6327 24.434H9.57068V26H8.59868V19.7ZM9.57068 23.525H10.6957C11.2117 23.525 11.6377 23.405 11.9737 23.165C12.3157 22.919 12.4867 22.553 12.4867 22.067C12.4867 21.593 12.3157 21.233 11.9737 20.987C11.6317 20.741 11.2057 20.618 10.6957 20.618H9.57068V23.525ZM14.962 19.7H17.05C17.95 19.7 18.709 19.997 19.327 20.591C19.945 21.185 20.254 21.938 20.254 22.85C20.254 23.762 19.945 24.515 19.327 25.109C18.709 25.703 17.95 26 17.05 26H14.962V19.7ZM15.934 25.082H17.05C17.692 25.082 18.223 24.884 18.643 24.488C19.069 24.086 19.282 23.54 19.282 22.85C19.282 22.166 19.069 21.623 18.643 21.221C18.223 20.819 17.692 20.618 17.05 20.618H15.934V25.082ZM22.7718 22.364H25.6788V23.282H22.7718V26H21.7998V19.7H25.8948V20.618H22.7718V22.364Z" fill="white"/>
<defs>
<clipPath id="clip0_122_1075">
<rect width="34" height="34" fill="white"/>
</clipPath>
</defs>
</svg>
