<svg width="36" height="37" viewBox="0 0 36 37" fill="none" xmlns="http://www.w3.org/2000/svg">
<path fill-rule="evenodd" clip-rule="evenodd" d="M8 9C8 7.89543 8.89543 7 10 7H26C27.1046 7 28 7.89543 28 9V30C28 31.1046 27.1046 32 26 32H10C8.89543 32 8 31.1046 8 30V9ZM11 13C11 12.4477 11.4477 12 12 12C12.5523 12 13 12.4477 13 13C13 13.5523 12.5523 14 12 14C11.4477 14 11 13.5523 11 13ZM16 12C15.4477 12 15 12.4477 15 13C15 13.5523 15.4477 14 16 14H24C24.5523 14 25 13.5523 25 13C25 12.4477 24.5523 12 24 12H16ZM11 19C11 18.4477 11.4477 18 12 18C12.5523 18 13 18.4477 13 19C13 19.5523 12.5523 20 12 20C11.4477 20 11 19.5523 11 19ZM16 18C15.4477 18 15 18.4477 15 19C15 19.5523 15.4477 20 16 20H24C24.5523 20 25 19.5523 25 19C25 18.4477 24.5523 18 24 18H16ZM11 25C11 24.4477 11.4477 24 12 24C12.5523 24 13 24.4477 13 25C13 25.5523 12.5523 26 12 26C11.4477 26 11 25.5523 11 25ZM16 24C15.4477 24 15 24.4477 15 25C15 25.5523 15.4477 26 16 26H24C24.5523 26 25 25.5523 25 25C25 24.4477 24.5523 24 24 24H16Z" fill="#313188"/>
</svg>
