<svg width="37" height="37" viewBox="0 0 37 37" fill="none" xmlns="http://www.w3.org/2000/svg">
<path d="M28.4873 26.0128L24.0449 21.5704C24.9628 20.187 25.5 18.5306 25.5 16.75C25.5 11.9253 21.5748 8 16.75 8C11.9253 8 8 11.9253 8 16.75C8 21.5748 11.9253 25.5 16.75 25.5C18.5306 25.5 20.187 24.9628 21.5704 24.0449L26.0128 28.4873C26.6953 29.1706 27.8048 29.1706 28.4873 28.4873C29.1706 27.8039 29.1706 26.6961 28.4873 26.0128ZM10.625 16.75C10.625 13.3725 13.3725 10.625 16.75 10.625C20.1275 10.625 22.875 13.3725 22.875 16.75C22.875 20.1275 20.1275 22.875 16.75 22.875C13.3725 22.875 10.625 20.1275 10.625 16.75Z" fill="#313188"/>
</svg>
