<svg width="30" height="30" viewBox="0 0 30 30" fill="none" xmlns="http://www.w3.org/2000/svg">
<path d="M22.4998 18.4031C21.3856 18.4031 20.3834 18.8719 19.6719 19.62L11.3577 15.5494C11.3863 15.3581 11.4059 15.1645 11.4059 14.9653C11.4059 14.7713 11.3872 14.5819 11.36 14.3958L19.662 10.3697C20.3741 11.1239 21.3809 11.5973 22.4998 11.5973C24.657 11.5973 26.4059 9.84844 26.4059 7.69125C26.4059 5.53359 24.657 3.78516 22.4998 3.78516C20.3427 3.78516 18.5938 5.53359 18.5938 7.69125C18.5938 7.88531 18.6125 8.07422 18.6397 8.26078L10.3377 12.2869C9.62563 11.5327 8.61922 11.0592 7.49984 11.0592C5.34219 11.0592 3.59375 12.8081 3.59375 14.9653C3.59375 17.123 5.34219 18.8714 7.49984 18.8714C8.61406 18.8714 9.61625 18.4027 10.3278 17.6545L18.642 21.7252C18.6134 21.9159 18.5938 22.11 18.5938 22.3092C18.5938 24.4669 20.3427 26.2153 22.4998 26.2153C24.657 26.2153 26.4059 24.4669 26.4059 22.3092C26.4059 20.1516 24.657 18.4031 22.4998 18.4031Z" fill="#313188"/>
</svg>
