<svg width="138" height="31" viewBox="0 0 138 31" fill="none" xmlns="http://www.w3.org/2000/svg">
<path d="M17.018 30H12.776L0.722 0.599998H8.66L14.834 16.938L20.966 0.599998H28.904L17.018 30ZM39.3335 8.706C42.3295 8.706 44.8775 9.77 46.9775 11.898C49.0775 13.998 50.1275 16.532 50.1275 19.5C50.1275 22.468 49.0775 25.002 46.9775 27.102C44.8775 29.202 42.3295 30.252 39.3335 30.252C36.3375 30.252 33.7895 29.202 31.6895 27.102C29.6175 25.002 28.5815 22.468 28.5815 19.5C28.5815 16.504 29.6315 13.956 31.7315 11.856C33.8315 9.756 36.3655 8.706 39.3335 8.706ZM42.2735 16.266C41.4335 15.454 40.4535 15.048 39.3335 15.048C38.2135 15.048 37.2335 15.454 36.3935 16.266C35.5535 17.078 35.1335 18.156 35.1335 19.5C35.1335 20.844 35.5535 21.922 36.3935 22.734C37.2335 23.518 38.2135 23.91 39.3335 23.91C40.4535 23.91 41.4335 23.518 42.2735 22.734C43.1135 21.922 43.5335 20.844 43.5335 19.5C43.5335 18.156 43.1135 17.078 42.2735 16.266ZM75.3793 30H71.0953L70.6753 27.942C68.9953 29.482 66.9373 30.252 64.5013 30.252C61.5613 30.252 59.1393 29.216 57.2353 27.144C55.3593 25.072 54.4213 22.524 54.4213 19.5C54.4213 16.476 55.3593 13.928 57.2353 11.856C59.1393 9.756 61.5613 8.706 64.5013 8.706C66.0973 8.706 67.5393 9.098 68.8273 9.882V0.599998H75.3793V30ZM62.2333 22.734C63.0733 23.518 64.0533 23.91 65.1733 23.91C66.2933 23.91 67.2733 23.518 68.1133 22.734C68.9533 21.922 69.3733 20.844 69.3733 19.5C69.3733 18.156 68.9533 17.078 68.1133 16.266C67.2733 15.454 66.2933 15.048 65.1733 15.048C64.0533 15.048 63.0733 15.454 62.2333 16.266C61.3933 17.078 60.9733 18.156 60.9733 19.5C60.9733 20.844 61.3933 21.922 62.2333 22.734ZM100.95 30L94.8604 20.466C94.3844 19.738 93.9364 19.248 93.5164 18.996C93.0964 18.716 92.5224 18.576 91.7944 18.576H90.1984V30H83.0584V0.599998H90.1984V11.688H91.7524C92.4804 11.688 93.0544 11.562 93.4744 11.31C93.8944 11.03 94.3424 10.526 94.8184 9.798L100.698 0.599998H108.72L101.538 11.898C100.558 13.214 99.5364 14.25 98.4724 15.006C99.5084 15.594 100.544 16.714 101.58 18.366L109.014 30H100.95ZM119.617 6.564C118.889 7.208 117.993 7.53 116.929 7.53C115.865 7.53 114.969 7.208 114.241 6.564C113.513 5.92 113.149 5.122 113.149 4.17C113.149 3.246 113.513 2.462 114.241 1.818C114.997 1.146 115.893 0.809998 116.929 0.809998C117.965 0.809998 118.847 1.146 119.575 1.818C120.331 2.462 120.709 3.246 120.709 4.17C120.709 5.122 120.345 5.92 119.617 6.564ZM113.653 30V9H120.205V30H113.653ZM135.437 15.342V30H128.843V15.342H126.281V9H128.843V1.944H135.437V9H137.999V15.342H135.437Z" fill="#000018"/>
</svg>
