<svg width="34" height="30" viewBox="0 0 34 30" fill="none" xmlns="http://www.w3.org/2000/svg">
<g clip-path="url(#clip0_51_226)">
<path d="M16.9565 0C13.053 0 9.8913 3.14824 9.8913 7.03125C9.8913 9.86602 10.884 10.6582 16.2323 18.3691C16.5831 18.8733 17.3327 18.8733 17.6837 18.3691C23.0267 10.6582 24.0217 9.86719 24.0217 7.03125C24.0217 3.14824 20.8601 0 16.9565 0ZM0.592301 13.3359C0.234565 13.4766 0 13.8223 0 14.2031V29.0566C0 29.7199 0.676495 30.1723 1.29529 29.9262L9.42029 26.25V11.8008C8.97871 11.0625 8.66667 10.4297 8.44293 9.81445L0.592301 13.3359ZM19.2292 19.4414C18.7169 20.1797 17.8632 20.625 16.9565 20.625C16.0486 20.625 15.1985 20.1817 14.6803 19.4367C13.7301 18.0645 11.5928 15.0352 11.3043 14.625V26.1973L22.6087 30V14.625C22.3202 15.0352 20.183 18.0645 19.2292 19.4414ZM32.6236 9.44531L24.4928 13.125V30L33.3184 26.0396C33.6775 25.8457 33.913 25.5527 33.913 25.1719V10.3125C33.913 9.65039 33.2418 9.14648 32.6236 9.44531Z" fill="#313188"/>
</g>
<rect x="0.5" y="0.5" width="32.913" height="29" stroke="black"/>
<defs>
<clipPath id="clip0_51_226">
<rect width="33.913" height="30" fill="white"/>
</clipPath>
</defs>
</svg>
