<svg width="34" height="34" viewBox="0 0 34 34" fill="none" xmlns="http://www.w3.org/2000/svg">
<g clip-path="url(#clip0_122_1076)">
<path d="M19.4976 0H8.25C7.12283 0 6.04183 0.447767 5.2448 1.2448C4.44777 2.04183 4 3.12283 4 4.25V29.75C4 30.8772 4.44777 31.9582 5.2448 32.7552C6.04183 33.5522 7.12283 34 8.25 34H25.25C26.3772 34 27.4582 33.5522 28.2552 32.7552C29.0522 31.9582 29.5 30.8772 29.5 29.75V10.0024C29.4999 9.43884 29.2759 8.89842 28.8774 8.5L21 0.622625C20.6016 0.224083 20.0612 0.000120354 19.4976 0ZM19.9375 7.4375V3.1875L26.3125 9.5625H22.0625C21.4989 9.5625 20.9584 9.33862 20.5599 8.9401C20.1614 8.54159 19.9375 8.00109 19.9375 7.4375Z" fill="#313188"/>
</g>
<defs>
<clipPath id="clip0_122_1076">
<rect width="34" height="34" fill="white"/>
</clipPath>
</defs>
</svg>
