<svg width="26" height="26" viewBox="0 0 26 26" fill="none" xmlns="http://www.w3.org/2000/svg">
<path d="M13.0231 0.40627C16.3883 0.412313 19.4437 1.73842 21.6995 3.89418L23.5132 2.08053C24.281 1.31277 25.5938 1.85653 25.5938 2.94234V9.75002C25.5938 10.4231 25.0481 10.9688 24.375 10.9688H17.5673C16.4815 10.9688 15.9377 9.65602 16.7055 8.88821L18.8256 6.7681C17.2583 5.30057 15.2303 4.48766 13.0757 4.46908C8.38358 4.42855 4.42848 8.22572 4.46905 13.0736C4.50755 17.6724 8.23591 21.5313 13 21.5313C15.0885 21.5313 17.0623 20.7859 18.6179 19.421C18.8587 19.2097 19.2225 19.2226 19.4491 19.4491L21.4632 21.4632C21.7106 21.7106 21.6983 22.1139 21.4387 22.3484C19.2056 24.3655 16.2462 25.5938 13 25.5938C6.04469 25.5938 0.406301 19.9554 0.40625 13.0001C0.406199 6.05279 6.07577 0.393829 13.0231 0.40627Z" fill="white"/>
</svg>
