<?xml version="1.0" encoding="utf-8"?><svg viewBox="0 0 138 96" xmlns="http://www.w3.org/2000/svg" xmlns:xlink="http://www.w3.org/1999/xlink"><style>:root>svg{display:none}:root>svg:target{display:block}</style><svg viewBox="0 0 36 37" id="cart" xmlns="http://www.w3.org/2000/svg"><path d="M32.538 11.816c-.355-.533-1.242-1.065-1.953-1.065L7.683 9.152 6.795 6.31c0-.178-.178-.533-.533-.533l-2.13-.71c-.355-.178-.888 0-1.065.532-.178.356 0 .889.532 1.066l1.776.533.887 3.02 3.551 12.256c.254.927.792 1.69 1.491 2.24-.795.654-1.315 1.63-1.315 2.734A3.562 3.562 0 0013.539 31a3.562 3.562 0 003.551-3.552c0-.649-.188-1.251-.495-1.777h6.851a3.509 3.509 0 00-.495 1.777A3.562 3.562 0 0026.5 31a3.56 3.56 0 003.551-3.552c0-.958-.386-1.827-1.008-2.468.87-.554 1.522-1.414 1.72-2.506l2.131-8.348c.176-.889.176-1.6-.357-2.31z"/></svg><svg viewBox="0 0 37 37" id="catalog" xmlns="http://www.w3.org/2000/svg"><path d="M5.781 16.188a1.156 1.156 0 01-1.156-1.157V5.784a1.156 1.156 0 011.156-1.157h9.25a1.156 1.156 0 011.156 1.157v9.247a1.156 1.156 0 01-1.156 1.157h-9.25zm16.188 0a1.156 1.156 0 01-1.157-1.157V5.784a1.156 1.156 0 011.157-1.157h9.247a1.156 1.156 0 011.157 1.157v9.247a1.156 1.156 0 01-1.157 1.157H21.97zM5.78 32.375a1.156 1.156 0 01-1.156-1.156v-9.25a1.156 1.156 0 011.156-1.156h9.25a1.156 1.156 0 011.156 1.156v9.25a1.156 1.156 0 01-1.156 1.156H5.78zm16.188 0a1.156 1.156 0 01-1.157-1.156v-9.25a1.156 1.156 0 011.157-1.156h9.247a1.156 1.156 0 011.157 1.156v9.25a1.156 1.156 0 01-1.157 1.156H21.97z"/></svg><svg viewBox="0 0 36 37" id="login" xmlns="http://www.w3.org/2000/svg"><path fill-rule="evenodd" clip-rule="evenodd" d="M8 24.929C8 22.759 9.722 21 11.846 21h12.308C26.278 21 28 22.759 28 24.929v3.142C28 30.241 26.278 32 24.154 32H11.846C9.722 32 8 30.241 8 28.071V24.93zM18 18a6 6 0 100-12 6 6 0 000 12z"/></svg><svg viewBox="0 0 83 96" id="play" xmlns="http://www.w3.org/2000/svg"><path d="M83 48L.5 95.631V.37L83 48z"/></svg><svg viewBox="0 0 36 37" id="price" xmlns="http://www.w3.org/2000/svg"><path fill-rule="evenodd" clip-rule="evenodd" d="M8 9a2 2 0 012-2h16a2 2 0 012 2v21a2 2 0 01-2 2H10a2 2 0 01-2-2V9zm3 4a1 1 0 112 0 1 1 0 01-2 0zm5-1a1 1 0 100 2h8a1 1 0 100-2h-8zm-5 7a1 1 0 112 0 1 1 0 01-2 0zm5-1a1 1 0 100 2h8a1 1 0 100-2h-8zm-5 7a1 1 0 112 0 1 1 0 01-2 0zm5-1a1 1 0 100 2h8a1 1 0 100-2h-8z"/></svg><svg viewBox="0 0 37 37" id="search" xmlns="http://www.w3.org/2000/svg"><path d="M28.487 26.013l-4.442-4.443a8.69 8.69 0 001.455-4.82c0-4.825-3.925-8.75-8.75-8.75S8 11.925 8 16.75s3.925 8.75 8.75 8.75a8.69 8.69 0 004.82-1.455l4.443 4.442a1.75 1.75 0 002.474-2.474zM10.625 16.75a6.132 6.132 0 016.125-6.125 6.132 6.132 0 016.125 6.125 6.132 6.132 0 01-6.125 6.125 6.132 6.132 0 01-6.125-6.125z"/></svg><svg viewBox="0 0 48 13" id="slider-arr" xmlns="http://www.w3.org/2000/svg"><path d="M2 11h44l-8.5-9"/></svg><svg viewBox="0 0 138 31" id="vodkit-logo" xmlns="http://www.w3.org/2000/svg"><path d="M17.018 30h-4.242L.722.6H8.66l6.174 16.338L20.966.6h7.938L17.018 30zM39.334 8.706c2.995 0 5.543 1.064 7.643 3.192 2.1 2.1 3.15 4.634 3.15 7.602s-1.05 5.502-3.15 7.602c-2.1 2.1-4.647 3.15-7.643 3.15-2.997 0-5.545-1.05-7.645-3.15-2.072-2.1-3.108-4.634-3.108-7.602 0-2.996 1.05-5.544 3.15-7.644 2.1-2.1 4.634-3.15 7.602-3.15zm2.94 7.56c-.84-.812-1.82-1.218-2.94-1.218-1.12 0-2.1.406-2.94 1.218-.84.812-1.26 1.89-1.26 3.234s.42 2.422 1.26 3.234c.84.784 1.82 1.176 2.94 1.176 1.12 0 2.1-.392 2.94-1.176.84-.812 1.26-1.89 1.26-3.234s-.42-2.422-1.26-3.234zM75.379 30h-4.284l-.42-2.058c-1.68 1.54-3.738 2.31-6.174 2.31-2.94 0-5.362-1.036-7.266-3.108-1.876-2.072-2.814-4.62-2.814-7.644s.938-5.572 2.814-7.644c1.904-2.1 4.326-3.15 7.266-3.15 1.596 0 3.038.392 4.326 1.176V.6h6.552V30zm-13.146-7.266c.84.784 1.82 1.176 2.94 1.176 1.12 0 2.1-.392 2.94-1.176.84-.812 1.26-1.89 1.26-3.234s-.42-2.422-1.26-3.234c-.84-.812-1.82-1.218-2.94-1.218-1.12 0-2.1.406-2.94 1.218-.84.812-1.26 1.89-1.26 3.234s.42 2.422 1.26 3.234zM100.95 30l-6.09-9.534c-.476-.728-.924-1.218-1.344-1.47-.42-.28-.994-.42-1.722-.42h-1.596V30h-7.14V.6h7.14v11.088h1.554c.728 0 1.302-.126 1.722-.378.42-.28.868-.784 1.344-1.512L100.698.6h8.022l-7.182 11.298c-.98 1.316-2.002 2.352-3.066 3.108 1.036.588 2.072 1.708 3.108 3.36L109.014 30h-8.064zm18.667-23.436c-.728.644-1.624.966-2.688.966s-1.96-.322-2.688-.966c-.728-.644-1.092-1.442-1.092-2.394 0-.924.364-1.708 1.092-2.352.756-.672 1.652-1.008 2.688-1.008 1.036 0 1.918.336 2.646 1.008.756.644 1.134 1.428 1.134 2.352 0 .952-.364 1.75-1.092 2.394zM113.653 30V9h6.552v21h-6.552zm21.784-14.658V30h-6.594V15.342h-2.562V9h2.562V1.944h6.594V9h2.562v6.342h-2.562z"/></svg></svg>