<svg width="30" height="27" viewBox="0 0 30 27" fill="none" xmlns="http://www.w3.org/2000/svg">
<path d="M0.526052 12.9598L7.4232 15.6132L10.1119 24.5384C10.2288 25.1414 10.9302 25.2621 11.3978 24.9002L15.2555 21.6437C15.6062 21.2819 16.1907 21.2819 16.6583 21.6437L23.5554 26.83C24.023 27.1918 24.7244 26.9506 24.8413 26.3476L29.985 1.01934C30.1019 0.416287 29.5174 -0.18676 28.9329 0.0544611L0.526052 11.3919C-0.175351 11.6331 -0.175351 12.7186 0.526052 12.9598ZM9.76121 14.2865L23.3216 5.72315C23.5554 5.60254 23.7892 5.96438 23.5554 6.08499L12.4499 16.8193C12.0992 17.1812 11.7485 17.6636 11.7485 18.2666L11.3978 21.1613C11.3978 21.5231 10.8133 21.6437 10.6964 21.1613L9.29358 15.8544C8.94288 15.2514 9.17671 14.5277 9.76121 14.2865Z" fill="#313188"/>
</svg>
