<svg width="30" height="28" viewBox="0 0 30 28" fill="none" xmlns="http://www.w3.org/2000/svg">
<path d="M0.526052 13.4398L7.4232 16.1915L10.1119 25.4472C10.2288 26.0726 10.9302 26.1977 11.3978 25.8225L15.2555 22.4454C15.6062 22.0701 16.1907 22.0701 16.6583 22.4454L23.5554 27.8237C24.023 28.1989 24.7244 27.9488 24.8413 27.3234L29.985 1.05709C30.1019 0.431705 29.5174 -0.193677 28.9329 0.0564782L0.526052 11.8138C-0.175351 12.0639 -0.175351 13.1896 0.526052 13.4398ZM9.76121 14.8156L23.3216 5.93512C23.5554 5.81004 23.7892 6.18528 23.5554 6.31036L12.4499 17.4423C12.0992 17.8175 11.7485 18.3178 11.7485 18.9432L11.3978 21.9451C11.3978 22.3203 10.8133 22.4454 10.6964 21.9451L9.29358 16.4416C8.94288 15.8163 9.17671 15.0658 9.76121 14.8156Z" fill="#313188"/>
</svg>
