<svg width="27" height="30" viewBox="0 0 27 30" fill="none" xmlns="http://www.w3.org/2000/svg">
<path d="M20.8979 0.712061C15.9974 -0.237354 10.9084 -0.237354 6.00785 0.712061C3.84031 1.18677 1.10733 3.84513 0.636126 5.93384C-0.212042 10.0163 -0.212042 14.1938 0.636126 18.2762C1.20157 20.365 3.93455 23.0233 6.00785 23.498C6.10209 23.498 6.19633 23.593 6.19633 23.6879V29.6692C6.19633 29.954 6.5733 30.1439 6.76178 29.8591L9.58901 26.9159C9.58901 26.9159 11.8508 24.5424 12.2277 24.1626C12.2277 24.1626 12.322 24.0677 12.4162 24.0677C15.2435 24.1626 18.1649 23.8778 20.9921 23.4031C23.1597 22.9284 25.8927 20.27 26.3639 18.1813C27.212 14.0988 27.212 9.92139 26.3639 5.8389C25.7984 3.84513 23.0654 1.18677 20.8979 0.712061ZM20.9921 18.5611C20.5209 19.5105 19.9555 20.27 19.0131 20.7447C18.7304 20.8397 18.4476 20.9346 18.1649 21.0295C17.788 20.9346 17.5052 20.8397 17.2225 20.7447C14.2068 19.5105 11.3796 17.8015 9.1178 15.3331C7.89267 13.9089 6.85602 12.2949 6.00785 10.586C5.63089 9.73151 5.25393 8.97197 4.9712 8.1175C4.68848 7.35797 5.15968 6.59844 5.63089 6.02879C6.10209 5.45914 6.66754 5.07937 7.32722 4.79455C7.79843 4.50972 8.26964 4.69961 8.6466 5.07937C9.40053 6.02879 10.1544 6.9782 10.7199 8.02256C11.0969 8.68715 11.0026 9.44668 10.3429 9.92139C10.1544 10.0163 10.0602 10.1113 9.87173 10.3012C9.77748 10.3961 9.589 10.491 9.49476 10.6809C9.30628 10.9657 9.30628 11.2506 9.40052 11.5354C10.1544 13.719 11.5681 15.428 13.7356 16.3774C14.1126 16.5673 14.3953 16.6622 14.8665 16.6622C15.5262 16.5673 15.8089 15.8078 16.2801 15.428C16.7513 15.0482 17.3168 15.0482 17.8822 15.3331C18.3534 15.6179 18.8246 15.9976 19.39 16.3774C19.8613 16.7572 20.3325 17.042 20.8037 17.4218C21.0864 17.6117 21.1806 18.0864 20.9921 18.5611ZM17.034 11.4405C16.8455 11.4405 16.9398 11.4405 17.034 11.4405C16.6571 11.4405 16.5628 11.2506 16.4686 10.9657C16.4686 10.7759 16.4686 10.491 16.3743 10.3012C16.2801 9.92139 16.0916 9.54162 15.7147 9.2568C15.5262 9.16186 15.3377 9.06691 15.1492 8.97197C14.8665 8.87703 14.678 8.87703 14.3953 8.87703C14.1126 8.78209 14.0183 8.59221 14.0183 8.30738C14.0183 8.1175 14.301 7.92762 14.4895 7.92762C15.9974 8.02256 17.1283 8.87703 17.3168 10.6809C17.3168 10.7759 17.3168 10.9657 17.3168 11.0607C17.3168 11.2506 17.2225 11.4405 17.034 11.4405ZM16.0916 7.26303C15.6204 7.07314 15.1492 6.88326 14.5838 6.78832C14.3953 6.78832 14.1126 6.69338 13.9241 6.69338C13.6414 6.69338 13.4529 6.50349 13.5471 6.21867C13.5471 5.93384 13.7356 5.74396 14.0183 5.8389C14.9607 5.93384 15.8089 6.12373 16.6571 6.50349C18.3534 7.35797 19.2958 8.78209 19.5785 10.6809C19.5785 10.7759 19.5785 10.8708 19.5785 10.9657C19.5785 11.1556 19.5785 11.3455 19.5785 11.6303C19.5785 11.7253 19.5785 11.8202 19.5785 11.9152C19.4843 12.2949 18.8246 12.3899 18.7304 11.9152C18.7304 11.8202 18.6361 11.6303 18.6361 11.5354C18.6361 10.6809 18.4476 9.82645 18.0707 9.06691C17.5052 8.21244 16.8455 7.64279 16.0916 7.26303ZM21.1806 12.9595C20.8979 12.9595 20.7094 12.6747 20.7094 12.3899C20.7094 11.8202 20.6152 11.2506 20.5209 10.6809C20.144 7.64279 17.6937 5.17431 14.7723 4.6996C14.301 4.60466 13.8298 4.60466 13.4529 4.50972C13.1702 4.50972 12.7932 4.50972 12.699 4.12996C12.6047 3.84513 12.8874 3.56031 13.1702 3.56031C13.2644 3.56031 13.3586 3.56031 13.3586 3.56031C17.2225 3.65525 13.5471 3.56031 13.3586 3.56031C17.3168 3.65525 20.6152 6.31361 21.2749 10.3012C21.3691 10.9657 21.4634 11.6303 21.4634 12.3899C21.6518 12.6747 21.4633 12.9595 21.1806 12.9595Z" fill="#313188"/>
</svg>
