<svg width="26" height="24" viewBox="0 0 26 24" fill="none" xmlns="http://www.w3.org/2000/svg">
<g clip-path="url(#clip0_49_184)">
<path fill-rule="evenodd" clip-rule="evenodd" d="M14.2216 21.6692C13.6451 22.6844 12.1804 22.6798 11.6103 21.6609L1.85708 4.23072C1.29803 3.23164 2.0202 2 3.16506 2H22.8163C23.9653 2 24.687 3.23977 24.1196 4.23895L14.2216 21.6692ZM18.2669 7.60192C19.2085 7.60192 19.9719 6.8386 19.9719 5.897C19.9719 4.9554 19.2085 4.19208 18.2669 4.19208C17.3253 4.19208 16.562 4.9554 16.562 5.897C16.562 6.8386 17.3253 7.60192 18.2669 7.60192Z" fill="white"/>
<path d="M25.1227 4.58316L16.134 21.0702C15.8229 21.641 16.5677 22.1966 17.0261 21.7356L24.209 14.5118C24.6977 14.0204 25.001 13.3747 25.0673 12.6848L25.8247 4.79835C25.8637 4.39243 25.3179 4.22512 25.1227 4.58316Z" fill="white"/>
<path d="M0.877137 4.57926L9.86386 21.025C10.1756 21.5954 9.43139 22.1517 8.97253 21.6913L1.79297 14.4874C1.30303 13.9958 0.99885 13.3494 0.932343 12.6586L0.175338 4.79485C0.136277 4.38909 0.681667 4.22156 0.877137 4.57926Z" fill="white"/>
</g>
<defs>
<clipPath id="clip0_49_184">
<rect width="26" height="24" fill="white"/>
</clipPath>
</defs>
</svg>
